<svg width="84" height="83" viewBox="0 0 84 83" fill="none" xmlns="http://www.w3.org/2000/svg">
<path d="M43.6008 36.8173C44.0526 36.5313 44.5146 36.2608 44.9831 36.0226L45.1657 35.9337L42.7829 31.7944C42.1862 32.096 41.6052 32.4299 41.042 32.7962L43.426 36.9353L43.6008 36.8173Z" fill="white"/>
<path d="M32.9838 41.5933L37.1242 43.9762L38.1258 42.2378L33.9844 39.8538C33.6193 40.4181 33.2855 40.9968 32.9838 41.5933Z" fill="white"/>
<path d="M69.6359 60.6733C69.3876 61.143 69.1261 61.6037 68.8323 62.049L68.7133 62.2238L72.8547 64.6078C73.2197 64.0436 73.5537 63.4726 73.8632 62.8761L69.7317 60.4841L69.6359 60.6733Z" fill="white"/>
<path d="M37.211 60.6667L37.1153 60.4841L32.9838 62.8671C33.2777 63.4637 33.6193 64.0436 33.9845 64.6078L38.1259 62.2238L38.0058 62.049C37.7196 61.6037 37.4504 61.143 37.211 60.6667Z" fill="white"/>
<path d="M43.6008 67.6441L43.426 67.5238L41.042 71.6652C41.6052 72.0313 42.1861 72.3719 42.7829 72.6746L45.1657 68.5343L44.9831 68.4464C44.5144 68.2084 44.0525 67.9378 43.6008 67.6441Z" fill="white"/>
<path d="M65.797 32.7962C65.2339 32.4299 64.6597 32.0961 64.0664 31.7944L61.6735 35.927L63.413 36.9353L65.797 32.7962Z" fill="white"/>
<path d="M52.6827 69.8589V75.0271C53.0089 75.0657 53.3397 75.0728 53.6695 75.0728C54.0022 75.0728 54.3329 75.0657 54.6583 75.0271V69.8589V69.8046H52.6827V69.8589Z" fill="white"/>
<path d="M54.6583 34.1896V29.0223C54.3329 28.9839 54.0022 28.9755 53.6695 28.9755C53.3397 28.9755 53.0089 28.9839 52.6827 29.0223V34.1896V34.2437H54.6583V34.1896Z" fill="white"/>
<path d="M61.6735 68.5421L64.0664 72.6746C64.6597 72.363 65.2339 72.0313 65.797 71.6652L63.413 67.5238L61.6735 68.5421Z" fill="white"/>
<path d="M73.8631 41.5933C73.5603 40.9968 73.2196 40.4181 72.8546 39.8538L68.7131 42.2378L69.7238 43.9762L73.8631 41.5933Z" fill="white"/>
<path d="M77.01 51.3656H71.8345H71.7802V53.3412H71.8345H77.01C77.0411 53.016 77.0484 52.6851 77.0484 52.3533C77.0484 52.0226 77.0413 51.6908 77.01 51.3656Z" fill="white"/>
<path d="M35.5224 51.3656H30.3469H30.2925V53.3412H30.3469H35.5224C35.5535 53.016 35.5608 52.6851 35.5608 52.3533C35.5608 52.0226 35.5537 51.6908 35.5224 51.3656Z" fill="white"/>
<path d="M82.1615 26.6458C82.1615 26.6458 82.0314 29.1346 79.6462 30.194C77.2609 31.2547 74.876 28.8696 78.3217 26.2183C81.7665 23.5672 81.5015 14.8235 78.3217 12.1724C79.1164 14.2926 75.802 17.2086 73.6839 15.3534C71.5626 11.9076 73.8153 6.20914 76.9961 4.61964C74.6109 2.76213 67.5869 4.88351 67.5869 9.65492C67.5869 13.4503 67.7193 14.9562 64.5385 14.8237C61.057 14.6767 64.0098 8.72571 64.5385 7.93088C54.202 9.38891 60.0329 18.5332 56.0572 18.797C52.0817 19.0631 54.4679 14.8235 54.7328 14.2916C47.8201 15.4413 49.5051 19.763 44.6858 23.4472C32.3338 27.1901 23.342 38.6596 23.3409 52.2358C23.342 68.8505 36.8081 82.3156 53.4217 82.3167C70.0366 82.3156 83.5027 68.8505 83.5038 52.2357C83.5038 48.397 82.7771 44.7308 81.4671 41.355C81.7943 37.3136 83.25 34.8373 83.7375 32.8317C84.8294 28.3442 82.1615 26.6458 82.1615 26.6458ZM53.4217 78.4356C46.1806 78.4345 39.6429 75.5062 34.896 70.7616C30.1513 66.0136 27.2229 59.4759 27.222 52.2358C27.2229 44.9936 30.1513 38.4559 34.896 33.709C39.6429 28.9642 46.1806 26.0359 53.4217 26.0359C60.6629 26.0359 67.2006 28.9642 71.9487 33.709C76.6935 38.4559 79.6217 44.9936 79.6227 52.2358C79.6217 59.4759 76.6934 66.0136 71.9487 70.7616C67.2006 75.5062 60.6629 78.4345 53.4217 78.4356Z" fill="white"/>
<path d="M62.3064 41.3798L53.7744 51.0652L47.1872 46.1914C46.5716 45.7085 45.6472 45.9316 45.1257 46.6889C44.6043 47.4442 44.6817 48.4474 45.3002 48.9291L52.7475 55.0352L52.8501 55.0986L52.8977 55.1253C53.5423 55.507 54.3939 55.3047 54.9619 54.6396L55.0114 54.5881L64.1394 43.1115C64.6599 42.4929 64.6692 41.6029 64.1626 41.124C63.6561 40.6462 62.825 40.7613 62.3064 41.3798Z" fill="white"/>
<circle cx="53.6705" cy="52.3534" r="3.62193" fill="white"/>
<path d="M30.3519 3.51661L40.3756 2.38453L40.5454 20.5919L35.4548 21.3406L30.3519 3.51661Z" fill="#FADF12"/>
<path d="M18.7263 8.00855L11.8613 14.6604L26.6538 27.7106L29.7408 24.672L18.7263 8.00855Z" fill="#FADF12"/>
<path d="M4.83794 27.384L2.89724 36.7413L21.2144 38.568L22.8721 34.069L4.83794 27.384Z" fill="#FADF12"/>
</svg>
