<svg width="104" height="83" viewBox="0 0 104 83" fill="none" xmlns="http://www.w3.org/2000/svg">
<g clip-path="url(#clip0_1_825)">
<path d="M5.51936 40.3567C5.88884 39.5498 6.59515 38.2204 7.84176 35.8829C8.40973 34.8097 9.04816 33.6234 9.7017 32.4044H3.97613C1.77952 32.4044 0 34.1839 0 36.3831C0 38.5773 1.77952 40.3567 3.97613 40.3567H5.51936Z" fill="white"/>
<path d="M78.3808 32.4044H72.6554C73.3114 33.6234 73.9472 34.8097 74.5153 35.8829C75.762 38.2202 76.4657 39.5498 76.8377 40.3567H78.381C80.5776 40.3567 82.3571 38.5772 82.3571 36.3831C82.3569 34.1839 80.5776 32.4044 78.3808 32.4044Z" fill="white"/>
<path d="M6.33618 74.827C6.33618 77.7877 8.73901 80.1879 11.6971 80.1879C14.6578 80.1879 17.0556 77.7877 17.0556 74.827V69.7576H6.33618V74.827Z" fill="white"/>
<path d="M65.2965 74.827C65.2965 77.7877 67.6993 80.1879 70.66 80.1879C73.6207 80.1879 76.0209 77.7877 76.0209 74.827V69.7576H65.2965V74.827Z" fill="white"/>
<path d="M75.2592 41.3568C75.5307 41.4347 65.3365 22.7255 64.8489 21.7152C63.5621 19.0334 60.3803 17.4199 57.2787 17.4199C53.6947 17.4199 43.7117 17.4199 43.7117 17.4199C43.7117 17.4199 28.6618 17.4199 25.0754 17.4199C21.9714 17.4199 18.7971 19.0334 17.5077 21.7152C17.0202 22.7255 6.82853 41.4348 7.09748 41.3568C7.09748 41.3568 3.79998 44.6443 3.54857 44.9057C2.16121 46.3986 2.26174 47.688 2.26174 48.9774C2.26174 48.9774 2.26174 61.0892 2.26174 63.8665C2.26174 66.6462 2.75444 68.1667 6.03182 68.1667H76.3247C79.6021 68.1667 80.0998 66.6462 80.0998 63.8665C80.0998 61.0892 80.0998 48.9774 80.0998 48.9774C80.0998 47.688 80.1953 46.3988 78.8028 44.9057C78.5617 44.6443 75.2592 41.3568 75.2592 41.3568ZM15.5325 35.6165C15.5325 35.6165 22.0797 23.8238 22.4643 23.0524C23.1278 21.7329 25.0128 20.7777 26.9405 20.7777H55.4165C57.3468 20.7777 59.2292 21.7329 59.8927 23.0524C60.2798 23.824 66.827 35.6165 66.827 35.6165C67.4302 36.7022 66.8974 38.723 65.1103 38.723H17.2465C15.4594 38.7229 14.9293 36.7022 15.5325 35.6165ZM14.6577 61.8431C11.3352 61.8431 8.64086 59.1514 8.64086 55.8286C8.64086 52.5035 11.3352 49.8118 14.6577 49.8118C17.9803 49.8118 20.6722 52.5035 20.6722 55.8286C20.6722 59.1512 17.9803 61.8431 14.6577 61.8431ZM50.3118 63.4692C50.3118 63.9089 49.9549 64.2659 49.5175 64.2659H32.8417C32.4019 64.2659 32.045 63.9089 32.045 63.4692V56.1227C32.045 55.6879 32.4019 55.3335 32.8417 55.3335H49.5177C49.9551 55.3335 50.312 55.6879 50.312 56.1227V63.4692H50.3118ZM67.6991 61.8431C64.3765 61.8431 61.6797 59.1514 61.6797 55.8286C61.6797 52.5035 64.3765 49.8118 67.6991 49.8118C71.0217 49.8118 73.716 52.506 73.716 55.8286C73.716 59.1512 71.0217 61.8431 67.6991 61.8431Z" fill="white"/>
<path d="M24.5954 7.92202C24.598 6.30593 25.9099 4.99401 27.526 4.99144H54.8309C56.4444 4.99401 57.7565 6.30593 57.7589 7.92202V15.8315H60.5814V7.92202C60.5814 4.74517 58.0077 2.17152 54.8309 2.16895H27.526C24.3492 2.17152 21.7755 4.74517 21.7729 7.92202V15.8315H24.5954V7.92202Z" fill="white"/>
<path d="M31.3891 14.9494H32.8192C32.8897 14.9494 32.9349 14.9066 32.9349 14.8413V9.06056C32.9349 9.01536 32.96 8.99268 33.0002 8.99268H34.9406C35.0059 8.99268 35.0562 8.9499 35.0562 8.88459V7.68318C35.0562 7.61787 35.0059 7.57251 34.9406 7.57251H29.2705C29.2 7.57251 29.1548 7.61771 29.1548 7.68318V8.88459C29.1548 8.9499 29.2 8.99268 29.2705 8.99268H31.2083C31.2535 8.99268 31.2762 9.01536 31.2762 9.06056V14.8413C31.276 14.9066 31.3212 14.9494 31.3891 14.9494Z" fill="white"/>
<path d="M38.1927 7.57263C38.1123 7.57263 38.0671 7.61783 38.0444 7.6833L35.4078 14.8413C35.3828 14.9066 35.4078 14.9494 35.4833 14.9494H36.9636C37.0415 14.9494 37.0868 14.9167 37.1094 14.8413L37.5392 13.5495H40.2235L40.6608 14.8413C40.6859 14.9167 40.7313 14.9494 40.8117 14.9494H42.2745C42.3549 14.9494 42.375 14.9066 42.3549 14.8413L39.7612 7.6833C39.7361 7.61799 39.6959 7.57263 39.6129 7.57263H38.1927ZM39.771 12.1948H38.0016L38.8712 9.61354H38.9038L39.771 12.1948Z" fill="white"/>
<path d="M43.4053 14.9494H44.9636C45.0641 14.9494 45.1093 14.9167 45.1547 14.8413L46.5269 12.5943H46.5622L47.9294 14.8413C47.9746 14.9167 48.0148 14.9494 48.1205 14.9494H49.6863C49.7693 14.9494 49.7894 14.8841 49.7591 14.8186L47.4568 11.1416L49.5957 7.70341C49.6333 7.6381 49.6082 7.57263 49.5304 7.57263H47.9646C47.8741 7.57263 47.8289 7.60529 47.7811 7.6833L46.5622 9.67643H46.5269L45.3104 7.6833C45.2676 7.60545 45.2224 7.57263 45.1294 7.57263H43.5611C43.4857 7.57263 43.4606 7.63794 43.4958 7.70341L45.6297 11.1416L43.3401 14.8186C43.2946 14.8839 43.3272 14.9494 43.4053 14.9494Z" fill="white"/>
<path d="M51.5409 7.6833V14.8413C51.5409 14.9066 51.5861 14.9494 51.6516 14.9494H53.0867C53.152 14.9494 53.1974 14.9066 53.1974 14.8413V7.6833C53.1974 7.61799 53.1522 7.57263 53.0867 7.57263H51.6516C51.5861 7.57263 51.5409 7.61783 51.5409 7.6833Z" fill="white"/>
</g>
<path d="M101.907 34.2829L101.797 43.2306L85.7389 41.3611L85.6416 36.7976L101.907 34.2829Z" fill="#FADF12"/>
<path d="M101.747 22.4348L96.6456 15.655L83.5151 27.2273L85.851 30.2812L101.747 22.4348Z" fill="#FADF12"/>
<path d="M83.6994 12.0782L75.6704 9.33244L72.038 25.2515L75.8183 27.2094L83.6994 12.0782Z" fill="#FADF12"/>
<defs>
<clipPath id="clip0_1_825">
<rect width="82.3569" height="82.3569" fill="white"/>
</clipPath>
</defs>
</svg>
