<svg width="107" height="82" viewBox="0 0 107 82" fill="none" xmlns="http://www.w3.org/2000/svg">
<path d="M40.2868 23.7569L36.7736 22.433C33.563 21.2239 29.9793 22.8472 28.77 26.0567C27.5608 29.2675 29.1841 32.8498 32.3949 34.0589L40.2868 37.0324V23.7569Z" fill="white"/>
<path d="M87.1794 26.3148C87.1436 26.4419 87.109 26.5606 87.0745 26.6847V69.773C87.0745 70.9657 86.5845 72.0631 85.8018 72.8429C85.0205 73.627 83.9244 74.1157 82.7305 74.1157H50.909C51.0637 73.8631 51.2043 73.598 51.3136 73.3094C51.5207 72.7559 51.6185 72.1941 51.6185 71.6419C51.6185 70.6894 51.3259 69.7591 50.7971 68.9791C50.2669 68.1992 49.5064 67.5754 48.5554 67.2164L43.6578 65.3721H43.6563C43.1056 65.165 42.545 65.0657 41.9915 65.0657C41.0376 65.0657 40.1073 65.3583 39.3288 65.8884C38.5488 66.4186 37.9234 67.1791 37.5645 68.1303C37.3588 68.6796 37.2594 69.2415 37.2594 69.795C37.2594 70.7501 37.5534 71.6806 38.0821 72.4592C38.6122 73.2375 39.3728 73.8644 40.324 74.2218L45.2215 76.066C45.7738 76.2746 46.3356 76.3726 46.8878 76.3726C47.8417 76.3726 48.772 76.0785 49.5506 75.5513C49.6859 75.4602 49.8087 75.3524 49.9343 75.246C53.8504 78.5357 59.9838 81.7713 69.1041 81.9893C88.1593 82.4408 93.2266 68.3233 95.9807 52.8448C95.9807 52.8448 102.555 23.1949 103.001 21.6296C105.232 13.7944 91.4173 11.4311 87.1794 26.3148Z" fill="white"/>
<path d="M47.7065 39.7599V7.0526H79.6548V59.3728H52.284C52.2218 59.9277 52.0948 60.4826 51.8892 61.0278C51.3715 62.4069 50.4506 63.5291 49.3161 64.2995C49.0179 64.5011 48.7059 64.6791 48.3829 64.8311L49.3203 65.1844C50.6992 65.702 51.8229 66.6226 52.5932 67.7574C53.2201 68.678 53.6134 69.7424 53.7404 70.8577H82.7305C83.0356 70.8577 83.2963 70.7392 83.4979 70.5403C83.6967 70.3388 83.8154 70.0765 83.8154 69.7728V1.08646C83.8154 0.779923 83.6967 0.52047 83.4979 0.318993C83.2965 0.118798 83.0356 0.00156348 82.7305 0.00012207H44.6309C44.3258 0.00156348 44.0649 0.118798 43.8634 0.318993C43.6645 0.52047 43.5473 0.780083 43.546 1.08646V38.0207L46.3896 39.0891C46.8604 39.2685 47.2993 39.4948 47.7065 39.7599ZM63.6807 67.3847C62.6301 67.3847 61.7799 66.5316 61.7799 65.4826C61.7799 64.4334 62.6302 63.5831 63.6807 63.5831C64.7297 63.5831 65.5814 64.4334 65.5814 65.4826C65.5814 66.5316 64.7297 67.3847 63.6807 67.3847Z" fill="white"/>
<path d="M43.7654 63.0198C44.3175 63.2269 44.8794 63.3249 45.4315 63.3249C46.3854 63.3249 47.3157 63.0338 48.0943 62.5036C48.8742 61.9735 49.4982 61.2115 49.8571 60.2618C50.0642 59.7096 50.1622 59.1479 50.1622 58.5957C50.1622 57.6418 49.8696 56.7114 49.3409 55.9329C48.8108 55.1544 48.0502 54.5277 47.1005 54.1702L42.2015 52.3246C41.6505 52.1175 41.0889 52.0197 40.5354 52.0197C39.5815 52.0197 38.6511 52.3123 37.8726 52.8409C37.0939 53.3711 36.4687 54.1331 36.1098 55.0855C35.9012 55.635 35.8047 56.1954 35.8032 56.7505C35.8032 57.7044 36.0973 58.6347 36.626 59.4133C37.1561 60.1931 37.9167 60.817 38.8693 61.1759L43.7654 63.0198Z" fill="white"/>
<path d="M42.2899 49.9722C42.8421 50.182 43.4039 50.2785 43.956 50.2785C44.9099 50.2785 45.8417 49.9873 46.6202 49.4572C47.3985 48.9271 48.024 48.1665 48.3814 47.2167C48.5899 46.662 48.6867 46.1014 48.6867 45.5479C48.688 44.5953 48.3954 43.665 47.8667 42.8852C47.3366 42.1065 46.5745 41.4827 45.6235 41.1238L40.7258 39.2796C40.1737 39.0698 39.6132 38.973 39.0597 38.973C38.1058 38.973 37.1755 39.2643 36.3969 39.7957C35.6186 40.3246 34.9932 41.0864 34.6328 42.0376C34.4272 42.5884 34.329 43.1502 34.329 43.7037C34.329 44.6576 34.6218 45.5865 35.1504 46.3666C35.6806 47.1452 36.4426 47.7704 37.3936 48.1308L42.2899 49.9722Z" fill="white"/>
<path d="M2.0055 20.504L5.59012 10.576L22.7491 18.8569L21.0916 23.9794L2.0055 20.504Z" fill="#FADF12"/>
<path d="M0.83011 33.4922L3.88777 43.0158L22.9873 35.1885L21.5679 30.8841L0.83011 33.4922Z" fill="#FADF12"/>
<path d="M12.5681 55.5027L20.4464 61.6609L30.6512 45.3245L27.1992 41.6838L12.5681 55.5027Z" fill="#FADF12"/>
</svg>
